<?xml version="1.0" standalone="no"?>
<!DOCTYPE svg PUBLIC "-//W3C//DTD SVG 20010904//EN"
 "http://www.w3.org/TR/2001/REC-SVG-20010904/DTD/svg10.dtd">
<svg version="1.0" xmlns="http://www.w3.org/2000/svg"
 width="311.000000pt" height="74.000000pt" viewBox="0 0 311.000000 74.000000"
 preserveAspectRatio="xMidYMid meet">

<g transform="translate(0.000000,74.000000) scale(0.100000,-0.100000)"
fill="#000000" stroke="none">
<path d="M2634 626 c-70 -31 -102 -137 -60 -200 77 -118 256 -68 256 72 0 61
-24 100 -73 123 -49 22 -81 23 -123 5z m100 -72 c46 -45 25 -117 -36 -122 -42
-4 -68 23 -68 70 0 55 68 89 104 52z"/>
<path d="M290 495 l0 -135 81 0 80 0 -3 28 c-3 24 -7 27 -45 30 l-43 3 0 105
0 104 -35 0 -35 0 0 -135z"/>
<path d="M511 507 c-24 -67 -46 -128 -49 -134 -3 -9 8 -13 36 -13 34 0 41 4
46 25 6 22 11 25 56 25 45 0 50 -3 56 -25 5 -21 12 -25 46 -25 28 0 39 4 36
13 -3 6 -25 67 -49 134 l-44 123 -45 0 -45 0 -44 -123z m103 9 c3 -13 9 -31
12 -40 5 -13 -1 -16 -26 -16 -25 0 -31 3 -26 16 3 9 9 27 12 40 8 31 20 31 28
0z"/>
<path d="M798 495 l47 -136 49 3 48 3 44 125 c24 69 44 128 44 133 0 4 -17 7
-38 7 l-38 0 -30 -97 -31 -98 -30 95 -30 95 -41 3 -41 3 47 -136z"/>
<path d="M1096 503 c-25 -71 -46 -131 -46 -135 0 -5 16 -8 35 -8 29 0 37 5 45
25 8 22 16 25 55 25 39 0 47 -4 57 -25 9 -20 18 -25 49 -25 l38 0 -38 108
c-65 177 -55 162 -104 162 l-44 0 -47 -127z m114 -25 c0 -13 -8 -18 -25 -18
-29 0 -29 0 -13 53 l12 40 13 -29 c6 -16 12 -37 13 -46z"/>
<path d="M1360 495 l0 -135 35 0 35 0 0 50 c0 28 4 50 8 50 5 0 19 -22 32 -50
23 -49 25 -50 67 -50 l43 0 -28 51 -29 50 28 29 c32 32 36 57 14 99 -19 37
-31 41 -126 41 l-79 0 0 -135z m135 45 c0 -21 -5 -26 -32 -28 -31 -3 -33 -1
-33 28 0 29 2 31 33 28 27 -2 32 -7 32 -28z"/>
<path d="M1651 507 c-24 -67 -46 -128 -49 -134 -3 -9 8 -13 36 -13 34 0 41 4
46 25 6 22 11 25 56 25 45 0 50 -3 56 -25 5 -21 12 -25 46 -25 28 0 39 4 36
13 -3 6 -25 67 -49 134 l-44 123 -45 0 -45 0 -44 -123z m103 9 c3 -13 9 -31
12 -40 5 -13 -1 -16 -26 -16 -25 0 -31 3 -26 16 3 9 9 27 12 40 8 31 20 31 28
0z"/>
<path d="M1910 495 l0 -135 35 0 c35 0 35 0 35 45 0 41 2 45 25 45 38 0 92 25
104 48 19 35 13 81 -14 107 -22 22 -32 25 -105 25 l-80 0 0 -135z m136 60 c9
-21 -14 -45 -42 -45 -20 0 -24 5 -24 30 0 27 3 30 30 30 18 0 33 -6 36 -15z"/>
<path d="M2160 495 l0 -135 35 0 35 0 0 135 0 135 -35 0 -35 0 0 -135z"/>
<path d="M2280 495 l0 -135 65 0 c36 0 80 6 99 14 97 41 113 175 27 233 -28
19 -47 23 -112 23 l-79 0 0 -135z m150 55 c24 -24 26 -77 3 -102 -9 -10 -30
-18 -50 -18 l-33 0 0 70 0 70 30 0 c17 0 39 -9 50 -20z"/>
<path d="M319 175 c-31 -83 -42 -125 -34 -125 7 0 18 14 24 30 10 29 12 30 70
30 44 0 61 -4 61 -13 0 -17 27 -54 34 -46 10 9 -81 244 -96 247 -9 2 -29 -40
-59 -123z m89 13 l21 -58 -50 0 c-37 0 -50 4 -47 13 3 6 13 36 23 65 9 30 20
50 24 45 4 -4 17 -34 29 -65z"/>
<path d="M520 175 c0 -104 2 -125 15 -125 12 0 15 13 15 55 l0 55 43 0 c58 0
87 22 87 66 0 53 -28 74 -100 74 l-60 0 0 -125z m124 89 c19 -18 20 -38 6 -65
-8 -14 -21 -19 -55 -19 l-45 0 0 50 0 50 39 0 c23 0 46 -7 55 -16z"/>
<path d="M730 175 c0 -77 4 -125 10 -125 6 0 10 25 10 55 l0 55 44 0 c57 0 89
25 89 70 0 48 -31 70 -99 70 l-54 0 0 -125z m118 93 c7 -7 12 -24 12 -38 0
-37 -18 -50 -67 -50 l-43 0 0 50 0 50 43 0 c24 0 48 -5 55 -12z"/>
</g>
</svg>
