<svg xmlns="http://www.w3.org/2000/svg" width="311" height="74" viewBox="0 0 311 74">
<g>
<path d="M 257.40 34.95 C254.58,37.43 253.05,38.00 249.22,38.00 C240.57,37.99 235.00,32.79 235.00,24.73 C235.00,16.49 238.44,12.33 246.75,10.54 C256.51,8.44 265.23,18.71 262.00,28.51 C261.38,30.38 259.31,33.27 257.40,34.95 ZM 224.94 36.17 C222.53,37.46 219.39,38.00 214.27,38.00 L 207.00 38.00 L 207.00 11.00 L 214.75 11.00 C220.76,11.01 223.24,11.46 225.81,13.03 C234.19,18.14 233.69,31.48 224.94,36.17 ZM 122.00 33.00 L 122.00 38.00 L 115.00 38.00 L 115.00 11.00 L 123.55 11.00 C131.29,11.00 132.32,11.23 134.55,13.45 C137.96,16.87 137.81,21.35 134.15,25.00 L 131.30 27.85 L 134.23 32.92 L 137.17 38.00 L 132.75 38.00 C128.44,38.00 128.29,37.89 126.00,33.00 C124.71,30.25 123.29,28.00 122.83,28.00 C122.37,28.00 122.00,30.25 122.00,33.00 ZM 92.00 36.00 C92.00,37.67 91.33,38.00 88.00,38.00 C85.80,38.00 84.00,37.59 84.00,37.08 C84.00,36.31 90.33,18.22 92.51,12.75 C93.04,11.43 94.36,11.00 97.86,11.01 L 102.50 11.02 L 106.80 23.05 C109.16,29.66 111.34,35.73 111.65,36.54 C112.09,37.67 111.31,38.00 108.17,38.00 C105.01,38.00 104.00,37.57 103.50,36.00 C102.97,34.32 101.99,34.00 97.43,34.00 C92.67,34.00 92.00,34.25 92.00,36.00 ZM 147.29 36.00 C146.88,37.58 145.93,38.00 142.78,38.00 C140.03,38.00 138.92,37.61 139.21,36.75 C139.44,36.06 141.60,29.99 144.01,23.25 L 148.38 11.00 L 157.54 11.00 L 162.27 23.89 C164.87,30.98 167.00,37.05 167.00,37.39 C167.00,37.72 165.25,38.00 163.12,38.00 C160.07,38.00 159.12,37.57 158.71,36.00 C158.27,34.32 157.35,34.00 153.00,34.00 C148.65,34.00 147.73,34.32 147.29,36.00 ZM 33.50 36.00 C33.00,37.56 31.99,38.00 28.87,38.00 C25.50,38.00 24.96,37.72 25.44,36.25 C25.76,35.29 27.95,29.33 30.30,23.00 L 34.58 11.50 L 39.29 11.20 C41.88,11.03 44.00,11.05 44.00,11.25 C44.00,11.45 46.03,17.19 48.50,24.00 C50.97,30.81 53.00,36.75 53.00,37.19 C53.00,37.64 51.20,38.00 49.00,38.00 C45.67,38.00 45.00,37.67 45.00,36.00 C45.00,34.25 44.33,34.00 39.57,34.00 C35.01,34.00 34.03,34.32 33.50,36.00 ZM 178.00 33.50 L 178.00 38.00 L 170.00 38.00 L 170.00 11.00 L 178.33 11.00 C185.68,11.00 186.89,11.26 188.71,13.25 C194.86,19.96 190.46,29.00 181.05,29.00 C178.10,29.00 178.00,29.15 178.00,33.50 ZM 77.59 25.50 L 73.29 37.50 L 68.39 37.79 L 63.50 38.09 L 58.77 24.49 L 54.03 10.89 L 58.24 11.19 L 62.45 11.50 L 64.97 19.67 C66.36,24.17 67.80,28.15 68.18,28.52 C68.55,28.88 70.08,25.09 71.58,20.09 L 74.31 11.00 L 78.15 11.00 C80.59,11.00 81.98,11.46 81.94,12.25 C81.91,12.94 79.95,18.90 77.59,25.50 ZM 24.00 35.00 L 24.00 38.00 L 16.06 38.00 C11.69,38.00 7.91,37.66 7.67,37.25 C7.42,36.84 7.28,30.88 7.36,24.00 L 7.50 11.50 L 11.25 11.19 L 15.00 10.88 L 15.00 32.00 L 19.50 32.00 C23.83,32.00 24.00,32.11 24.00,35.00 ZM 54.00 64.00 C54.00,66.75 53.55,69.00 53.00,69.00 C52.39,69.00 52.00,64.17 52.00,56.50 L 52.00 44.00 L 57.55 44.00 C62.10,44.00 63.53,44.44 65.55,46.45 C66.90,47.80 68.00,50.05 68.00,51.45 C68.00,54.54 64.82,57.95 61.75,58.15 C60.51,58.23 58.83,58.39 58.00,58.50 C57.17,58.61 55.94,58.77 55.25,58.85 C54.44,58.95 54.00,60.75 54.00,64.00 ZM 34.00 64.13 C34.00,66.81 33.55,69.00 33.00,69.00 C32.39,69.00 32.00,64.17 32.00,56.50 L 32.00 44.00 L 37.55 44.00 C42.10,44.00 43.53,44.44 45.55,46.45 C50.46,51.36 47.11,57.52 38.95,58.60 L 34.00 59.26 ZM 10.15 66.00 C9.22,68.65 7.00,70.24 7.00,68.25 C7.00,67.53 9.38,60.85 13.67,49.51 C16.69,41.52 17.95,42.40 22.75,55.88 L 22.83 56.10 C26.47,66.32 27.23,68.44 26.66,68.88 C26.51,69.00 26.28,69.00 25.97,69.00 L 25.95 69.00 C25.37,69.00 24.43,67.65 23.85,66.00 C22.85,63.13 22.55,63.00 17.00,63.00 C11.45,63.00 11.15,63.13 10.15,66.00 ZM 202.00 11.00 L 202.00 38.00 L 195.00 38.00 L 195.00 11.00 ZM 244.70 29.75 C247.39,31.75 251.70,31.27 253.44,28.78 C258.48,21.59 250.53,13.38 244.44,19.47 C242.27,21.64 241.89,22.72 242.40,25.32 C242.75,27.07 243.78,29.06 244.70,29.75 ZM 214.72 31.39 C215.73,32.40 220.16,31.15 222.25,29.27 C224.65,27.11 224.51,21.51 222.00,19.00 C220.89,17.89 218.67,17.00 217.00,17.00 L 214.00 17.00 L 214.00 23.83 C214.00,27.59 214.32,30.99 214.72,31.39 ZM 54.00 46.00 L 54.00 56.00 L 58.30 56.00 C63.24,56.00 65.00,54.69 65.00,51.00 C65.00,47.31 63.24,46.00 58.30,46.00 ZM 34.00 46.00 L 34.00 56.00 L 38.30 56.00 C43.30,56.00 45.00,54.69 45.00,50.84 C45.00,47.55 42.62,46.00 37.57,46.00 ZM 14.16 55.00 L 12.13 61.00 L 17.17 61.00 C21.58,61.00 22.12,60.78 21.50,59.25 C21.11,58.29 20.12,55.59 19.30,53.25 C18.48,50.91 17.45,49.00 17.00,49.00 C16.55,49.00 15.27,51.70 14.16,55.00 ZM 122.71 22.38 C123.10,22.77 124.57,22.96 125.96,22.80 C127.92,22.57 128.50,21.93 128.50,20.00 C128.50,17.91 127.97,17.45 125.25,17.19 C122.40,16.91 122.00,17.17 122.00,19.27 C122.00,20.59 122.32,21.99 122.71,22.38 ZM 178.00 20.00 C178.00,22.27 178.46,23.00 179.88,23.00 C182.28,23.00 184.40,20.47 183.64,18.51 C183.32,17.68 181.92,17.00 180.53,17.00 C178.39,17.00 178.00,17.46 178.00,20.00 ZM 151.01 26.25 C151.00,27.87 153.93,28.74 155.18,27.49 C155.83,26.83 153.73,20.00 152.87,20.00 C152.13,20.00 151.03,23.70 151.01,26.25 ZM 37.01 26.75 C37.00,28.19 40.60,28.46 41.45,27.07 C42.11,26.02 40.05,21.00 38.96,21.00 C38.22,21.00 37.04,24.49 37.01,26.75 ZM 95.69 27.25 C95.93,27.66 96.99,28.00 98.06,28.00 C100.26,28.00 100.50,26.39 98.88,22.32 L 97.77 19.50 L 96.52 23.00 C95.83,24.92 95.46,26.84 95.69,27.25 Z" fill="rgb(51,51,51)"/>
<path d="M 0.00 37.00 L 0.00 0.00 L 155.50 0.00 L 311.00 0.00 L 311.00 37.00 L 311.00 74.00 L 155.50 74.00 L 0.00 74.00 L 0.00 37.00 ZM 10.15 66.00 C11.15,63.13 11.45,63.00 17.00,63.00 C22.55,63.00 22.85,63.13 23.85,66.00 C24.43,67.65 25.37,69.00 25.95,69.00 C27.43,69.00 27.45,69.08 22.75,55.88 C17.95,42.40 16.69,41.52 13.67,49.51 C9.38,60.85 7.00,67.53 7.00,68.25 C7.00,70.24 9.22,68.65 10.15,66.00 ZM 34.00 64.13 L 34.00 59.26 L 38.95 58.60 C47.11,57.52 50.46,51.36 45.55,46.45 C43.53,44.44 42.10,44.00 37.55,44.00 L 32.00 44.00 L 32.00 56.50 C32.00,64.17 32.39,69.00 33.00,69.00 C33.55,69.00 34.00,66.81 34.00,64.13 ZM 54.00 64.00 C54.00,60.75 54.44,58.95 55.25,58.85 C55.94,58.77 57.17,58.61 58.00,58.50 C58.83,58.39 60.51,58.23 61.75,58.15 C64.82,57.95 68.00,54.54 68.00,51.45 C68.00,50.05 66.90,47.80 65.55,46.45 C63.53,44.44 62.10,44.00 57.55,44.00 L 52.00 44.00 L 52.00 56.50 C52.00,64.17 52.39,69.00 53.00,69.00 C53.55,69.00 54.00,66.75 54.00,64.00 ZM 24.00 35.00 C24.00,32.11 23.83,32.00 19.50,32.00 L 15.00 32.00 L 15.00 21.44 L 15.00 10.88 L 11.25 11.19 L 7.50 11.50 L 7.36 24.00 C7.28,30.88 7.42,36.84 7.67,37.25 C7.91,37.66 11.69,38.00 16.06,38.00 L 24.00 38.00 L 24.00 35.00 ZM 33.50 36.00 C34.03,34.32 35.01,34.00 39.57,34.00 C44.33,34.00 45.00,34.25 45.00,36.00 C45.00,37.67 45.67,38.00 49.00,38.00 C51.20,38.00 53.00,37.64 53.00,37.19 C53.00,36.75 50.97,30.81 48.50,24.00 C46.03,17.19 44.00,11.45 44.00,11.25 C44.00,11.05 41.88,11.03 39.29,11.20 L 34.58 11.50 L 30.30 23.00 C27.95,29.33 25.76,35.29 25.44,36.25 C24.96,37.72 25.50,38.00 28.87,38.00 C31.99,38.00 33.00,37.56 33.50,36.00 ZM 77.59 25.50 C79.95,18.90 81.91,12.94 81.94,12.25 C81.98,11.46 80.59,11.00 78.15,11.00 L 74.31 11.00 L 71.58 20.09 C70.08,25.09 68.55,28.88 68.18,28.52 C67.80,28.15 66.36,24.17 64.97,19.67 L 62.45 11.50 L 58.24 11.19 L 54.03 10.89 L 58.77 24.49 L 63.50 38.09 L 68.39 37.79 L 73.29 37.50 L 77.59 25.50 ZM 92.00 36.00 C92.00,34.25 92.67,34.00 97.43,34.00 C101.99,34.00 102.97,34.32 103.50,36.00 C104.00,37.57 105.01,38.00 108.17,38.00 C111.31,38.00 112.09,37.67 111.65,36.54 C111.34,35.73 109.16,29.66 106.80,23.05 L 102.50 11.02 L 97.86 11.01 C94.36,11.00 93.04,11.43 92.51,12.75 C90.33,18.22 84.00,36.31 84.00,37.08 C84.00,37.59 85.80,38.00 88.00,38.00 C91.33,38.00 92.00,37.67 92.00,36.00 ZM 122.00 33.00 C122.00,30.25 122.37,28.00 122.83,28.00 C123.29,28.00 124.71,30.25 126.00,33.00 C128.29,37.89 128.44,38.00 132.75,38.00 L 137.17 38.00 L 134.23 32.92 L 131.30 27.85 L 134.15 25.00 C137.81,21.35 137.96,16.87 134.55,13.45 C132.32,11.23 131.29,11.00 123.55,11.00 L 115.00 11.00 L 115.00 24.50 L 115.00 38.00 L 118.50 38.00 L 122.00 38.00 L 122.00 33.00 ZM 147.29 36.00 C147.73,34.32 148.65,34.00 153.00,34.00 C157.35,34.00 158.27,34.32 158.71,36.00 C159.12,37.57 160.07,38.00 163.12,38.00 C165.25,38.00 167.00,37.72 167.00,37.39 C167.00,37.05 164.87,30.98 162.27,23.89 L 157.54 11.00 L 152.96 11.00 L 148.38 11.00 L 144.01 23.25 C141.60,29.99 139.44,36.06 139.21,36.75 C138.92,37.61 140.03,38.00 142.78,38.00 C145.93,38.00 146.88,37.58 147.29,36.00 ZM 178.00 33.50 C178.00,29.15 178.10,29.00 181.05,29.00 C190.46,29.00 194.86,19.96 188.71,13.25 C186.89,11.26 185.68,11.00 178.33,11.00 L 170.00 11.00 L 170.00 24.50 L 170.00 38.00 L 174.00 38.00 L 178.00 38.00 L 178.00 33.50 ZM 202.00 24.50 L 202.00 11.00 L 198.50 11.00 L 195.00 11.00 L 195.00 24.50 L 195.00 38.00 L 198.50 38.00 L 202.00 38.00 L 202.00 24.50 ZM 224.94 36.17 C233.69,31.48 234.19,18.14 225.81,13.03 C223.24,11.46 220.76,11.01 214.75,11.00 L 207.00 11.00 L 207.00 24.50 L 207.00 38.00 L 214.27 38.00 C219.39,38.00 222.53,37.46 224.94,36.17 ZM 257.40 34.95 C259.31,33.27 261.38,30.38 262.00,28.51 C265.23,18.71 256.51,8.44 246.75,10.54 C238.44,12.33 235.00,16.49 235.00,24.73 C235.00,32.79 240.57,37.99 249.22,38.00 C253.05,38.00 254.58,37.43 257.40,34.95 ZM 14.16 55.00 C15.27,51.70 16.55,49.00 17.00,49.00 C17.45,49.00 18.48,50.91 19.30,53.25 C20.12,55.59 21.11,58.29 21.50,59.25 C22.12,60.78 21.58,61.00 17.17,61.00 L 12.13 61.00 L 14.16 55.00 ZM 34.00 51.00 L 34.00 46.00 L 37.57 46.00 C42.62,46.00 45.00,47.55 45.00,50.84 C45.00,54.69 43.30,56.00 38.30,56.00 L 34.00 56.00 L 34.00 51.00 ZM 54.00 51.00 L 54.00 46.00 L 58.30 46.00 C63.24,46.00 65.00,47.31 65.00,51.00 C65.00,54.69 63.24,56.00 58.30,56.00 L 54.00 56.00 L 54.00 51.00 ZM 37.01 26.75 C37.04,24.49 38.22,21.00 38.96,21.00 C40.05,21.00 42.11,26.02 41.45,27.07 C40.60,28.46 37.00,28.19 37.01,26.75 ZM 95.69 27.25 C95.46,26.84 95.83,24.92 96.52,23.00 L 97.77 19.50 L 98.88 22.32 C100.50,26.39 100.26,28.00 98.06,28.00 C96.99,28.00 95.93,27.66 95.69,27.25 ZM 122.71 22.38 C122.32,21.99 122.00,20.59 122.00,19.27 C122.00,17.17 122.40,16.91 125.25,17.19 C127.97,17.45 128.50,17.91 128.50,20.00 C128.50,21.93 127.92,22.57 125.96,22.80 C124.57,22.96 123.10,22.77 122.71,22.38 ZM 151.01 26.25 C151.03,23.70 152.13,20.00 152.87,20.00 C153.73,20.00 155.83,26.83 155.18,27.49 C153.93,28.74 151.00,27.87 151.01,26.25 ZM 178.00 20.00 C178.00,17.46 178.39,17.00 180.53,17.00 C181.92,17.00 183.32,17.68 183.64,18.51 C184.40,20.47 182.28,23.00 179.88,23.00 C178.46,23.00 178.00,22.27 178.00,20.00 ZM 214.72 31.39 C214.32,30.99 214.00,27.59 214.00,23.83 L 214.00 17.00 L 217.00 17.00 C218.67,17.00 220.89,17.89 222.00,19.00 C224.51,21.51 224.65,27.11 222.25,29.27 C220.16,31.15 215.73,32.40 214.72,31.39 ZM 244.70 29.75 C243.78,29.06 242.75,27.07 242.40,25.32 C241.89,22.72 242.27,21.64 244.44,19.47 C250.53,13.38 258.48,21.59 253.44,28.78 C251.70,31.27 247.39,31.75 244.70,29.75 Z" fill="rgb(253,253,253)"/>
</g>
</svg>